<svg xmlns="http://www.w3.org/2000/svg" version="1.1" xmlns:xlink="http://www.w3.org/1999/xlink" width="500" height="500"><svg width="500" height="500" viewBox="0 0 500 500" fill="none" xmlns="http://www.w3.org/2000/svg">
<rect width="500" height="500" rx="50" fill="#1447E6"></rect>
<path d="M252.5 125V150M177.5 125V150M177.5 137.5H165C158.37 137.5 152.011 140.134 147.322 144.822C142.634 149.511 140 155.87 140 162.5V212.5C140 232.391 147.902 251.468 161.967 265.533C176.032 279.598 195.109 287.5 215 287.5M215 287.5C234.891 287.5 253.968 279.598 268.033 265.533C282.098 251.468 290 232.391 290 212.5V162.5C290 155.87 287.366 149.511 282.678 144.822C277.989 140.134 271.63 137.5 265 137.5H252.5M215 287.5C215 307.391 222.902 326.468 236.967 340.533C251.032 354.598 270.109 362.5 290 362.5C309.891 362.5 328.968 354.598 343.033 340.533C357.098 326.468 365 307.391 365 287.5V250M365 250C378.807 250 390 238.807 390 225C390 211.193 378.807 200 365 200C351.193 200 340 211.193 340 225C340 238.807 351.193 250 365 250Z" stroke="white" stroke-width="25" stroke-linecap="round" stroke-linejoin="round"></path>
</svg><style>@media (prefers-color-scheme: light) { :root { filter: none; } }
@media (prefers-color-scheme: dark) { :root { filter: none; } }
</style></svg>